<svg xmlns="http://www.w3.org/2000/svg" xmlns:xlink="http://www.w3.org/1999/xlink" version="1.1" x="0px" y="0px" viewBox="0 0 70 87.5" enable-background="new 0 0 70 70" xml:space="preserve"><g><path d="M29.3239613,29.7567749c1.8707981,0.5941124,4.7563801,0.2810059,5.5651493-0.0209084   c0.0343132-0.1726379,0.0536156-0.5366783,0.0707703-0.8631878c0.062664-1.111824,0.631443-4.6588039,0.0761337-5.4557781   c-0.595253-0.8416748-4.4608326-0.6452465-5.8326855-0.136179c-0.7662125,0.2763138-0.6879368,0.2247105-0.6615982,1.2979984   C28.4817505,27.7233238,28.0289783,29.3535309,29.3239613,29.7567749z"/><path d="M58.1437149,32.7296791c0.057972-2.3612995,0.0995903-2.1465092,0.2418022-5.2769051   c-2.6589279,0.104681-4.2423553-0.2407951-6.6347542-0.451767c-2.563694-0.1955566-2.6764832,0.1199627-14.4472046,0.4644337   c-0.348156,3.1598835,0.1164093,4.1574421-3.0674667,4.6439228c-0.8224411,0.1270676-1.6271896,0.1919403-2.3911934,0.1919403   c-4.3885193,0-5.6991844-1.5965633-5.6429558-4.7171745c-7.1522636-0.1643944-13.7346077-1.2415028-20.6510353-0.7402115   c-0.7854476,0.0562286-1.6574819,0.1148682-2.5181901,0.1323605c0.0296218,7.0719738-0.2454858,12.7062206-0.8900621,18.0900211   c-0.0825658,0.6964455,0.0235903,1.2004204,0.325438,1.5403328c0.4589372,0.5168419,1.4625943,0.7902756,2.9026704,0.7902756   l0.1479754-0.0010757c0.4637623-0.0069695,0.9291334-0.0107193,1.3955765-0.0107193   c8.5307493,0,12.6454363,0.8760529,24.2786369,0.5977974C32.2033768,35.4552231,45.619648,27.1759243,58.1437149,32.7296791z"/><path d="M58.6546593,13.4371614c-0.0867882-4.5134411-0.4588051-3.8994246-17.0003128-4.0579882   c0.5068741-5.4793482,0.3251038-7.2883759-4.5096893-7.2883759c-1.3657837,0-3.4384346,0.1978362-4.0044403,0.1978362   c-2.8384132,0-6.194273-0.7688527-9.2237797,0.2031977c-2.3311443,0.7473814-2.4662514,1.7773092-2.5037804,3.5331733   l-0.0032177,0.1265292c-0.0044899,0.2284632,0.0059643,1.6631112,0.0168209,2.9626517   c-2.1547527-0.0128679-4.3140621-0.0213785-6.4778633-0.0213785l-3.2484818,0.0053606   c-12.4513521,0.0751276-8.7742252,4.7421722-8.6758432,15.685894c0.7849114-0.0171566,1.5885878-0.074522,2.3697457-0.1308174   c7.3394437-0.5263577,13.7881546,0.5891514,20.9442368,0.7457066c0.0971756-1.8512974-0.7653427-4.7560463,6.0590706-4.7560463   c4.1302986,0,5.1429367,1.4884644,5.0741119,4.6269016c2.5622177-0.0759296,6.5551338-0.2070847,9.1550865-0.3704739   c7.705761-0.4856758,6.9756699,0.5544376,11.857708,0.3545914C58.6452103,21.1625595,58.7023087,17.1183777,58.6546593,13.4371614z    M24.5871506,4.5827832c2.5261173-0.8113198,5.6484814-0.098114,8.5530663-0.098114   c0.5927734,0,2.6994438-0.1978359,4.0044403-0.1978359c1.8877563,0,2.2555504,0.3216848,2.26091,0.325438   c0.4309235,0.5730009,0.1615143,3.5243263,0.0465775,4.7416363c-4.6643524-0.0610323-7.2088852-0.1544752-15.8295135-0.2233028   C23.584959,4.6258421,23.4393349,4.9505486,24.5871506,4.5827832z"/><path d="M42.8524208,52.4130478c-0.0287476,0.151123-2.9671402,4.9121284-0.8154716,4.9121284   c0.9552727,0,0.7017441-0.8905296,8.5455627-0.8905296c1.5505219,0,4.3352394,0.0557556,6.1286354,0.4155083   c0.8487091-0.2278595,1.72155-0.2938042,2.5118217-0.3168602c0.0541496-0.8964272-0.2417984-2.7681007-1.3457146-4.7925682   C54.3314133,45.2400093,46.6917992,44.99506,42.8524208,52.4130478z"/><path d="M50.2342186,44.6294785c0.1103783,0.0025444,1.3827095,0.2404594,2.3690109-0.5427094   c1.9433136-1.5383263,1.3231316-5.0786018-1.7274475-4.756115C48.2161827,39.5868645,46.5188942,44.1937943,50.2342186,44.6294785z   "/><path d="M45.393734,34.659256c-6.6449394,2.1633301-11.211792,8.2179756-11.3662033,15.0671844   c-0.7908745,23.0850525,34.082386,25.0669632,33.855732,1.5339012   C67.7560654,38.0006905,55.6859779,31.2915478,45.393734,34.659256z M60.638382,58.7105675   c-2.378727,0.1436157-0.1532669-0.229538-4.0103378,0.3683281l-0.1345711-0.0289536   c-1.1355476-0.2664604-3.2897644-0.4192619-5.9109612-0.4192619c-3.3969917,0-6.0203362,0.2401924-6.5344925,0.4058609   c-1.2990074,0.3613586-2.3223648,0.9309425-3.8157196-0.1270676c-2.4490967-1.6920624-0.4841385-5.3528366,0.4600067-7.1119156   c0.16185-0.2137871,1.9057159-4.4320145,6.280899-6.4114494c-1.0303955-1.0881691-1.3546295-2.6723328-0.8438873-4.3355103   c0.6567764-2.138134,2.4753685-3.7074203,4.5250359-3.9052544c4.9235229-0.5104752,6.9531517,5.1489677,3.6603737,8.3286896   c2.2716293,0.975914,4.2221794,2.8130684,5.5800285,5.3825951C62.8846817,56.514061,60.6497765,58.6007233,60.638382,58.7105675z"/></g><text x="0" y="85" fill="#000000" font-size="5px" font-weight="bold" font-family="'Helvetica Neue', Helvetica, Arial-Unicode, Arial, Sans-serif">Created by Vectors Point</text><text x="0" y="90" fill="#000000" font-size="5px" font-weight="bold" font-family="'Helvetica Neue', Helvetica, Arial-Unicode, Arial, Sans-serif">from the Noun Project</text></svg>