<svg xmlns="http://www.w3.org/2000/svg" xmlns:xlink="http://www.w3.org/1999/xlink" version="1.1" x="0px" y="0px" viewBox="0 0 100 125" style="enable-background:new 0 0 100 100;" xml:space="preserve"><g><path d="M61.217,14.985c-3.71-3.184-8.386-4.922-13.313-4.922c-5.466,0-10.604,2.129-14.469,5.994   c-7.911,7.91-7.972,20.82-0.144,28.801c0.044,0.05,0.091,0.097,0.144,0.15l26.722,26.722c0.293,0.293,0.677,0.439,1.061,0.439   s0.768-0.146,1.061-0.439l26.837-26.831C92.91,41.051,95,35.949,95,30.532c0-5.476-2.129-10.617-5.995-14.476   C81.419,8.473,69.243,8.105,61.217,14.985z M86.987,42.785l-25.77,25.763L35.546,42.878c-0.027-0.032-0.055-0.063-0.084-0.092   c-6.709-6.809-6.667-17.847,0.094-24.608c3.298-3.299,7.684-5.115,12.348-5.115c4.613,0,8.967,1.786,12.261,5.028   c0.584,0.575,1.521,0.575,2.105-0.001c6.81-6.715,17.851-6.675,24.614,0.088c0,0,0,0.001,0.001,0.001   C90.184,21.471,92,25.858,92,30.532C92,35.155,90.217,39.509,86.987,42.785z"/><path d="M10.726,78.299l10.526,0.112c0.021,0,0.042,0,0.063,0c2.47,0,4.584-1.562,5.411-3.755l0.203,0.03   c1.777,0.265,3.387,1.075,4.656,2.343l8.193,8.194c2.102,2.101,4.878,3.428,7.816,3.735l8.228,0.868   c0.339,0.068,0.687,0.111,1.054,0.111c0.024,0,0.048-0.001,0.072-0.001c0.002,0,0.005,0,0.007,0c0.001,0,0.002,0,0.003,0   c0.014,0,0.029,0,0.043,0L70.3,89.512c0.999-0.035,1.938-0.443,2.645-1.15c0.756-0.755,1.176-1.805,1.152-2.899   c-0.126-3.816-3.306-6.854-7.157-6.709l-6.326,0.205l-4.281-1.057c-0.003-1.295-0.496-2.59-1.482-3.576l-7.036-7.031l-0.418-2.422   c-0.269-1.587-1.045-3.089-2.185-4.228l-4.851-4.851c-1.438-1.439-3.348-2.257-5.377-2.304l-8.004-0.179   c-0.767-2.264-2.894-3.911-5.416-3.939l-10.526-0.113c-0.021,0-0.042,0-0.063,0c-1.518,0-2.951,0.587-4.043,1.656   c-1.107,1.083-1.726,2.529-1.743,4.07L5,72.449c-0.017,1.541,0.571,3,1.655,4.107C7.739,77.663,9.185,78.282,10.726,78.299z    M38.24,57.915l4.851,4.851c0.703,0.703,1.182,1.63,1.349,2.613l0.5,2.896c0.01,0.059,0.043,0.107,0.059,0.163   c0.023,0.079,0.047,0.154,0.084,0.23c0.052,0.107,0.118,0.2,0.193,0.29c0.032,0.039,0.046,0.087,0.082,0.123l7.372,7.367   c0.808,0.809,0.808,2.124,0,2.932c-0.809,0.808-2.123,0.808-2.932,0l-8.464-8.464c-0.586-0.586-1.535-0.586-2.121,0   s-0.586,1.536,0,2.121l8.464,8.464c0.989,0.989,2.288,1.483,3.587,1.483s2.598-0.494,3.587-1.483   c0.226-0.226,0.42-0.473,0.594-0.728l4.65,1.149c0.015,0.004,0.029,0.002,0.044,0.005c0.072,0.015,0.147,0.023,0.224,0.028   c0.031,0.002,0.062,0.011,0.093,0.011c0.007,0,0.013-0.003,0.02-0.003c0.009,0,0.018,0.002,0.028,0.002l6.53-0.211   c2.183-0.068,3.993,1.643,4.064,3.793c0.006,0.266-0.091,0.513-0.274,0.695c-0.173,0.173-0.385,0.265-0.625,0.274l-13.19,0.422   l-0.931-0.098c-0.034-0.003-0.067-0.009-0.101-0.011l-8.07-0.851c-2.258-0.236-4.392-1.257-6.009-2.874l-8.193-8.194   c-1.727-1.726-3.917-2.829-6.339-3.189l-0.254-0.037l0.165-15.364l7.638,0.171C36.168,56.518,37.349,57.024,38.24,57.915z    M8.187,55.017c0.008-0.74,0.307-1.436,0.841-1.959c0.527-0.516,1.217-0.799,1.946-0.799c0.01,0,0.02,0,0.03,0l10.526,0.113   c1.537,0.017,2.774,1.28,2.758,2.817l-0.187,17.464c-0.016,1.537-1.249,2.761-2.817,2.757l-10.526-0.112   c-0.74-0.008-1.435-0.307-1.958-0.841C8.276,73.923,7.992,73.221,8,72.481L8.187,55.017z"/><circle cx="19.957" cy="72" r="2.477"/><path d="M65.046,25.063h-7.663c-0.829,0-1.5,0.671-1.5,1.5v5.978h-5.977c-0.829,0-1.5,0.671-1.5,1.5v7.663   c0,0.829,0.671,1.5,1.5,1.5h5.977v5.988c0,0.829,0.671,1.5,1.5,1.5h7.663c0.829,0,1.5-0.671,1.5-1.5v-5.988h5.988   c0.829,0,1.5-0.671,1.5-1.5V34.04c0-0.829-0.671-1.5-1.5-1.5h-5.988v-5.978C66.546,25.734,65.875,25.063,65.046,25.063z    M71.035,40.203h-5.988c-0.829,0-1.5,0.671-1.5,1.5v5.988h-4.663v-5.988c0-0.829-0.671-1.5-1.5-1.5h-5.977V35.54h5.977   c0.829,0,1.5-0.671,1.5-1.5v-5.978h4.663v5.978c0,0.829,0.671,1.5,1.5,1.5h5.988V40.203z"/><path d="M66.836,51.791c-1.783,0.721-3.672,1.086-5.616,1.086c-8.271,0-15-6.729-15-15l0.004-0.339   c0.02-0.828-0.636-1.515-1.464-1.535c-0.813-0.028-1.515,0.636-1.535,1.464l-0.005,0.41c0,9.925,8.075,18,18,18   c2.33,0,4.598-0.439,6.74-1.305c0.768-0.311,1.139-1.185,0.829-1.953C68.478,51.851,67.603,51.479,66.836,51.791z"/><path d="M61.22,19.877c-7.56,0-14.364,4.774-16.932,11.88c-0.282,0.779,0.122,1.639,0.901,1.92c0.779,0.282,1.639-0.121,1.92-0.901   c2.14-5.921,7.811-9.9,14.111-9.9c8.271,0,15,6.729,15,15c0,3.969-1.535,7.711-4.323,10.535c-0.582,0.59-0.575,1.54,0.014,2.122   c0.292,0.288,0.673,0.432,1.054,0.432c0.387,0,0.774-0.149,1.068-0.446c3.345-3.39,5.187-7.879,5.187-12.643   C79.22,27.952,71.146,19.877,61.22,19.877z"/></g><text x="0" y="115" fill="#000000" font-size="5px" font-weight="bold" font-family="'Helvetica Neue', Helvetica, Arial-Unicode, Arial, Sans-serif">Created by Maxim Kulikov</text><text x="0" y="120" fill="#000000" font-size="5px" font-weight="bold" font-family="'Helvetica Neue', Helvetica, Arial-Unicode, Arial, Sans-serif">from the Noun Project</text></svg>