<svg xmlns="http://www.w3.org/2000/svg" xmlns:xlink="http://www.w3.org/1999/xlink" version="1.1" x="0px" y="0px" viewBox="0 0 96 120" enable-background="new 0 0 96 96" xml:space="preserve"><g><g><g><g><path fill="#000000" d="M15.68,61.962L15.68,61.962c-0.003,0-0.055,0-0.058,0c-6.424-0.039-8.08-11.896-8.146-12.4      c-0.275-2.065,1.457-4.141,4.082-7.283c1.811-2.169,4.064-4.869,6.252-8.284c5.131-8.01,14.471-12.969,20.182-12.969      c3.354,0,6.21,1.741,6.366,3.881c0.065,0.893-0.284,3.043-4.929,3.724c-6.399,0.938-10.536,5.946-13.426,10.204      c-0.092,0.136-0.172,0.259-0.242,0.37c0.74-0.196,1.683-0.515,2.605-0.828c1.188-0.401,2.535-0.856,3.906-1.232      c3.182-0.871,5.915,0.613,6.479,3.366c0.47,2.285-0.653,5.274-4.22,6.802c-5.306,2.274-9.613,6.698-11.127,9.894      C21.37,61.499,17.325,61.962,15.68,61.962z M37.991,23.526c-4.406,0-13.138,4.106-18.076,11.817      c-2.272,3.548-4.582,6.315-6.439,8.538c-1.878,2.25-3.652,4.375-3.521,5.351c0.443,3.329,2.417,10.211,5.684,10.23l0.042,1.25      v-1.25c1.774,0,4.163-0.577,5.466-3.327c1.662-3.509,6.252-8.485,12.402-11.121c2.271-0.973,3.02-2.711,2.756-4.001      c-0.275-1.343-1.621-1.938-3.371-1.458c-1.301,0.356-2.609,0.799-3.766,1.19c-1.908,0.645-3.414,1.154-4.44,1.154      c-1.099,0-1.572-0.582-1.756-0.929c-0.523-0.988,0.007-2.129,0.964-3.54c2.93-4.316,7.684-10.181,15.133-11.273      c2.178-0.319,2.768-0.933,2.797-1.068c0.001-0.024-0.037-0.161-0.236-0.369C41.056,24.126,39.708,23.526,37.991,23.526z"/></g><g><path fill="#000000" d="M9.612,65.285c-0.074,0-0.15-0.007-0.225-0.021c-0.375-0.068-0.697-0.304-0.877-0.64l-4.648-8.688      c-0.258-0.483-0.172-1.08,0.215-1.469l4.079-4.117c0.485-0.49,1.277-0.495,1.768-0.008c0.49,0.486,0.494,1.277,0.008,1.768      l-3.429,3.461l3.471,6.49l3.124-2.726c0.521-0.454,1.31-0.4,1.764,0.12s0.399,1.31-0.12,1.764l-4.307,3.759      C10.204,65.177,9.912,65.285,9.612,65.285z"/></g><g><path fill="#000000" d="M30.829,46.089c-0.173,0-0.346-0.036-0.508-0.107c-0.309-0.138-0.55-0.395-0.666-0.713l-1.011-2.762      c-0.233-0.639,0.086-1.347,0.72-1.594c0.234-0.092,2.342-0.897,3.936-0.897c1.451,0,2.063,0.665,2.32,1.222      c0.225,0.485,0.235,1.04,0.029,1.56c-0.612,1.548-3.247,2.754-4.352,3.201C31.147,46.059,30.988,46.089,30.829,46.089z       M31.435,42.857l0.102,0.278c0.332-0.173,0.645-0.353,0.912-0.524C32.111,42.675,31.759,42.764,31.435,42.857z"/></g></g><g><g><path fill="#000000" d="M80.321,61.962c-1.646,0-5.691-0.463-7.727-4.756c-1.513-3.195-5.82-7.619-11.127-9.894      c-3.564-1.528-4.688-4.517-4.22-6.801c0.565-2.753,3.298-4.237,6.48-3.366c1.37,0.376,2.716,0.831,3.903,1.232      c0.93,0.314,1.879,0.635,2.61,0.832c-0.071-0.112-0.152-0.237-0.245-0.374c-2.89-4.258-7.027-9.266-13.426-10.204      c-4.645-0.681-4.994-2.831-4.929-3.724c0.156-2.14,3.013-3.881,6.366-3.881c5.711,0,15.051,4.958,20.182,12.969      c2.188,3.416,4.441,6.116,6.253,8.285c2.624,3.142,4.356,5.217,4.081,7.282c-0.066,0.505-1.723,12.362-8.146,12.4      C80.376,61.962,80.323,61.962,80.321,61.962z M61.884,39.383c-1.159,0-1.977,0.61-2.187,1.631      c-0.265,1.29,0.485,3.028,2.756,4.001c6.15,2.636,10.74,7.613,12.401,11.121c1.303,2.75,3.691,3.327,5.467,3.327v1.25      l0.042-1.25c3.266-0.02,5.239-6.901,5.683-10.23c0.131-0.976-1.643-3.101-3.521-5.35c-1.855-2.223-4.166-4.99-6.439-8.539      c-4.938-7.711-13.67-11.817-18.076-11.817c-1.717,0-3.063,0.6-3.637,1.195c-0.199,0.208-0.237,0.345-0.236,0.371      c0.029,0.133,0.619,0.747,2.797,1.066c7.448,1.092,12.203,6.957,15.133,11.274c0.957,1.41,1.487,2.552,0.965,3.54      c-0.185,0.347-0.657,0.929-1.757,0.929c-1.026,0-2.534-0.509-4.442-1.155c-1.154-0.391-2.463-0.833-3.764-1.189      C62.647,39.441,62.25,39.383,61.884,39.383z"/></g><g><path fill="#000000" d="M86.388,65.285c-0.3,0-0.592-0.108-0.822-0.308l-4.307-3.759c-0.52-0.454-0.574-1.244-0.12-1.764      s1.243-0.574,1.764-0.12l3.124,2.726l3.471-6.49l-3.429-3.461c-0.485-0.491-0.481-1.282,0.009-1.768      c0.49-0.486,1.281-0.482,1.768,0.008l4.078,4.117c0.387,0.39,0.473,0.986,0.215,1.469l-4.648,8.688      c-0.18,0.336-0.502,0.572-0.877,0.64C86.538,65.278,86.462,65.285,86.388,65.285z"/></g><g><path fill="#000000" d="M65.171,46.089c-0.158,0-0.318-0.03-0.469-0.091c-1.104-0.446-3.738-1.652-4.352-3.2      c-0.206-0.521-0.195-1.075,0.029-1.561c0.258-0.557,0.869-1.221,2.32-1.221c1.594,0,3.701,0.805,3.936,0.897      c0.633,0.248,0.953,0.956,0.719,1.594l-1.01,2.762c-0.115,0.318-0.356,0.576-0.666,0.713      C65.518,46.053,65.345,46.089,65.171,46.089z M63.551,42.61c0.269,0.171,0.58,0.351,0.913,0.525l0.102-0.279      C64.239,42.762,63.888,42.673,63.551,42.61z"/></g></g></g><g><g><path fill="#000000" d="M46.332,62.026c-0.227,0-0.456-0.061-0.661-0.19c-0.586-0.366-0.764-1.137-0.398-1.723     c0.339-0.542,0.699-1.07,1.104-1.618c1.054-1.426,1.263-2.658,1.186-3.051c-0.203,0.001-0.809,0.085-2.035,0.848     c-0.623,0.388-1.225,0.859-1.787,1.399c-0.498,0.478-1.29,0.462-1.768-0.036c-0.479-0.498-0.462-1.289,0.036-1.767     c0.687-0.66,1.427-1.238,2.198-1.719c2.951-1.837,4.45-1.272,5.188-0.474c1.389,1.502,0.451,4.311-1.006,6.284     c-0.365,0.495-0.691,0.972-0.994,1.458C47.155,61.818,46.749,62.026,46.332,62.026z"/></g><g><path fill="#000000" d="M36.761,72.041c-0.321,0-0.633-0.124-0.867-0.35c-0.277-0.267-0.416-0.645-0.377-1.027     c0.023-0.221,0.582-5.469,3.182-10.309c0.327-0.608,1.084-0.836,1.693-0.509c0.607,0.327,0.836,1.084,0.51,1.693     c-1.539,2.863-2.301,5.96-2.646,7.782l4.033-0.56c0.159-1.705,0.546-3.375,1.153-4.979c0.244-0.646,0.966-0.97,1.611-0.726     c0.646,0.245,0.971,0.966,0.727,1.612c-0.637,1.678-0.993,3.44-1.063,5.239c-0.023,0.605-0.477,1.107-1.077,1.19l-6.708,0.931     C36.876,72.037,36.817,72.041,36.761,72.041z"/></g><g><path fill="#000000" d="M46.368,65.757C46.368,65.757,46.368,65.757,46.368,65.757c-3.379,0-7.347-2.8-9.231-6.512     c-0.769-1.514-0.748-3.071,0.058-4.384c0.982-1.6,2.903-2.463,4.213-2.463c1.375,0,2.035,0.906,2.068,1.748     c0.055,1.427,1.281,4.635,3.332,5.422c0.094,0.036,0.172,0.06,0.232,0.076c0.035-0.324-0.025-0.888-0.127-1.265     c-0.109-0.408-0.006-0.843,0.275-1.158c0.702-0.784,1.438-1.182,2.186-1.182c1.027,0,1.857,0.737,2.218,1.971     c0.562,1.918,0.056,5.397-2.356,6.94C48.399,65.486,47.435,65.757,46.368,65.757z M41.052,54.958     c-0.591,0.148-1.341,0.583-1.727,1.211c-0.349,0.568-0.336,1.204,0.041,1.945c1.439,2.836,4.58,5.143,7.002,5.144l0,0     c0.581,0,1.092-0.139,1.52-0.413c0.473-0.302,0.861-0.841,1.111-1.518c-0.001,0.001-0.002,0.003-0.004,0.005     c-0.649,0.847-1.752,1.082-3.084,0.57C42.935,60.759,41.398,57.164,41.052,54.958z"/></g><g><path fill="#000000" d="M41.021,74.975c-0.855,0-1.66-0.135-2.303-0.456c-2.396-1.198-2.406-3.325-2.077-4.281     c0.226-0.653,0.937-1.001,1.589-0.775c0.652,0.225,1,0.937,0.775,1.589c-0.067,0.248-0.064,0.785,0.83,1.231     c1.074,0.538,3.565-0.057,4.755-0.648c-0.603-0.174-1.496-0.327-2.3-0.372c-0.688-0.039-1.217-0.628-1.178-1.317     c0.037-0.689,0.627-1.217,1.315-1.179c1.935,0.105,5.179,0.606,5.179,2.771c0,0.781-0.482,1.475-1.435,2.064     C44.983,74.336,42.882,74.975,41.021,74.975z"/></g><g><path fill="#000000" d="M48.767,56.528c-0.297,0-0.597-0.111-0.844-0.329c-0.517-0.458-0.529-1.28-0.071-1.797     c0.616-0.697,1.642-0.885,2.938-1.123c0.375-0.069,0.77-0.141,1.158-0.23c0.672-0.157,1.343,0.267,1.497,0.939     s-0.267,1.343-0.939,1.497c-0.425,0.097-0.854,0.177-1.265,0.252c-0.549,0.101-1.379,0.253-1.59,0.388     C49.413,56.395,49.093,56.528,48.767,56.528z"/></g><g><path fill="#000000" d="M33.581,70.841c-0.705,0-1.439-0.163-2.166-0.581c-1.819-1.05-2.744-4.528-2.852-7.51     c-0.095-2.581,0.303-9,6.004-12.869c9.461-6.42,16.559-3.501,17.338-3.146l0.21,0.095c1.616,0.734,1.749,0.793,2.417,1.353     l0.16,0.133c0.531,0.44,0.605,1.229,0.166,1.76c-0.441,0.532-1.229,0.604-1.761,0.166L52.929,50.1     c-0.408-0.341-0.408-0.341-1.847-0.994L50.87,49.01c-2.35-1.069-8.132-1.653-14.898,2.939c-4.669,3.168-4.989,8.545-4.91,10.709     c0.119,3.282,1.181,5.192,1.604,5.436c1.555,0.896,3.725-1.037,3.746-1.056c0.506-0.467,1.295-0.438,1.765,0.066     c0.469,0.504,0.442,1.292-0.06,1.762C38.007,68.969,35.972,70.841,33.581,70.841z"/></g><g><path fill="#000000" d="M56.196,58.294c-3.019,0-5.474-2.456-5.474-5.474c0-3.019,2.455-5.474,5.474-5.474     c3.018,0,5.474,2.456,5.474,5.474C61.67,55.838,59.214,58.294,56.196,58.294z M56.196,49.846c-1.64,0-2.974,1.334-2.974,2.974     c0,1.64,1.334,2.974,2.974,2.974s2.974-1.334,2.974-2.974C59.17,51.18,57.836,49.846,56.196,49.846z"/></g></g></g><text x="0" y="111" fill="#000000" font-size="5px" font-weight="bold" font-family="'Helvetica Neue', Helvetica, Arial-Unicode, Arial, Sans-serif">Created by faisalovers</text><text x="0" y="116" fill="#000000" font-size="5px" font-weight="bold" font-family="'Helvetica Neue', Helvetica, Arial-Unicode, Arial, Sans-serif">from the Noun Project</text></svg>